<svg height="512pt" viewBox="0 0 512 512" width="512pt" xmlns="http://www.w3.org/2000/svg"><path d="m256 259.777344-112-56v-147.777344h224v147.777344zm0 0" fill="#f8d539"/><path d="m256 112-112-56v147.777344l112 56zm0 0" fill="#f2c714"/><path d="m144 56 112-56 112 56-112 56zm0 0" fill="#f0f0e6"/><path d="m112 497.886719-112-56v-147.773438h224v147.773438zm0 0" fill="#f2c714"/><path d="m112 350.113281-112-56v147.773438l112 56zm0 0" fill="#f8d539"/><path d="m142.550781 254.519531 36.492188-86.035156c3.453125-8.136719 12.84375-11.933594 20.980469-8.480469l.011718.003906c8.136719 3.453126 11.933594 12.84375 8.484375 20.976563l-36.496093 86.039063c-3.449219 8.132812-12.84375 11.929687-20.976563 8.480468l-.015625-.007812c-8.136719-3.449219-11.933594-12.84375-8.480469-20.976563zm0 0" fill="#708299"/><path d="m311.996094 159.996094.011718-.003906c8.136719-3.449219 17.527344.351562 20.976563 8.488281l36.464844 86.046875c3.449219 8.136718-.351563 17.527344-8.488281 20.976562l-.015626.003906c-8.136718 3.449219-17.527343-.351562-20.972656-8.488281l-36.464844-86.046875c-3.449218-8.136718.351563-17.527344 8.488282-20.976562zm0 0" fill="#708299"/><g fill="#f8d539"><path d="m64 176h32v32h-32zm0 0"/><path d="m240 480h32v32h-32zm0 0"/><path d="m400 176h32v32h-32zm0 0"/></g><path d="m0 294.113281 112-56 112 56-112 56zm0 0" fill="#f0f0e6"/><path d="m400 497.886719-112-56v-147.773438h224v147.773438zm0 0" fill="#f8d539"/><path d="m400 350.113281-112-56v147.773438l112 56zm0 0" fill="#f2c714"/><path d="m288 294.113281 112-56 112 56-112 56zm0 0" fill="#f0f0e6"/><path d="m176 368h160c8.835938 0 16 7.164062 16 16s-7.164062 16-16 16h-160c-8.835938 0-16-7.164062-16-16s7.164062-16 16-16zm0 0" fill="#708299"/><path d="m432 368h32v32h-32zm0 0" fill="#fff"/><path d="m48 368h32v32h-32zm0 0" fill="#fff"/></svg>