<svg height="464pt" viewBox="0 -29 464 464" width="464pt" xmlns="http://www.w3.org/2000/svg"><path d="m48 341.65625s-96-56 0-104 168-120 256-88 82.742188 57.375 128 80c32 16 0 56 0 56s-24 32-24 56zm0 0" fill="#f9bb4b"/><path d="m424 125.65625c-3.660156.019531-7.265625.886719-10.535156 2.535156 1.648437-3.269531 2.515625-6.875 2.535156-10.535156 0-13.253906-10.746094-24-24-24s-24 10.746094-24 24c.359375 6.203125 3.253906 11.988281 8 16l-64 64 32 32 64-64c4.011719 4.746094 9.796875 7.640625 16 8 13.253906 0 24-10.746094 24-24s-10.746094-24-24-24zm0 0" fill="#cfdfe8"/><path d="m264 341.65625s-56-16-48-72 104-80 104-80l32 32s16 144-88 120zm0 0" fill="#dd9f3c"/><path d="m92 260.566406-8-13.824218c3.929688-2.285157 96.40625-56.222657 112.457031-64.246094l7.152344 14.320312c-15.609375 7.792969-110.617187 63.191406-111.609375 63.75zm0 0" fill="#ba7a1c"/><path d="m212.421875 174.496094 16-8 7.152344 14.3125-15.996094 8zm0 0" fill="#ba7a1c"/><path d="m286.0625 322.753906c-8.867188-.160156-17.601562-2.183594-25.636719-5.9375l7.125-14.328125c.175781.070313 17.273438 8.335938 29.832031 1.71875 7.714844-4.0625 12.65625-13.382812 14.695313-27.6875l15.84375 2.273438c-2.816406 19.703125-10.609375 33.039062-23.203125 39.621093-5.773438 2.941407-12.175781 4.429688-18.65625 4.339844zm0 0" fill="#ba7a1c"/><g fill="#cfdfe8"><path d="m226.34375 91.3125-29.65625-29.65625 32-32-18.34375-18.34375 11.3125-11.3125 29.65625 29.65625-32 32 18.34375 18.34375zm0 0"/><path d="m330.34375 99.3125-29.65625-29.65625 32-32-18.34375-18.34375 11.3125-11.3125 29.65625 29.65625-32 32 18.34375 18.34375zm0 0"/><path d="m130.34375 99.3125-29.65625-29.65625 32-32-18.34375-18.34375 11.3125-11.3125 29.65625 29.65625-32 32 18.34375 18.34375zm0 0"/></g><path d="m440 405.65625h-416l-24-64h464zm0 0" fill="#87cee9"/><path d="m16 365.65625h48v16h-48zm0 0" fill="#26829e"/><path d="m344 365.65625h80v16h-80zm0 0" fill="#26829e"/></svg>