<?xml version="1.0" encoding="iso-8859-1"?>
<!-- Generator: Adobe Illustrator 19.0.0, SVG Export Plug-In . SVG Version: 6.00 Build 0)  -->
<svg version="1.1" id="Layer_1" xmlns="http://www.w3.org/2000/svg" xmlns:xlink="http://www.w3.org/1999/xlink" x="0px" y="0px"
	 viewBox="0 0 511.999 511.999" style="enable-background:new 0 0 511.999 511.999;" xml:space="preserve">
<path style="fill:#BD968A;" d="M175.684,335.234l-33.191,60.353c-2.88,5.236-1.415,11.798,3.417,15.312l40.386,29.366
	c2.012,1.464,4.437,2.252,6.926,2.252h44.644c12.541,0,24.287,6.148,31.436,16.457l2.326,3.353
	c3.072,4.43-0.096,10.489-5.486,10.489h-81.36c-7.934,0-15.678-2.436-22.183-6.978l-42.164-29.437
	c-16.314-11.39-21.765-33.053-12.787-50.813l34.302-67.853L175.684,335.234z"/>
<path style="fill:#3F5666;" d="M416.373,107.82c0,52.752-49.928,66.065-49.928,66.065L300.78,282.442
	c-23.92,55.937-79.435,95.139-144.099,95.139C70.151,377.581,0,307.399,0,220.83C0,146.542,51.659,84.336,120.995,68.172
	c0,0,224.374-28.989,226.772-28.989C385.655,39.184,416.373,69.916,416.373,107.82z"/>
<g>
	<path style="fill:#2F3F4A;" d="M21.558,214.743c0-60.031,32.363-112.487,80.579-140.894C42.498,96.012,0,153.451,0,220.83
		c0,86.569,70.151,156.751,156.682,156.751c3.562,0,7.09-0.139,10.592-0.373C85.356,368.413,21.558,299.033,21.558,214.743z"/>
	<ellipse style="fill:#2F3F4A;" cx="364.314" cy="83.602" rx="8.084" ry="8.091"/>
</g>
<path style="fill:#E8C1B5;" d="M416.373,107.82l92.345,33.112c5.22,1.872,3.878,9.604-1.669,9.604H401.449
	c0,0-24.793-5.565-16.139-27.826C393.962,100.45,416.373,107.82,416.373,107.82z"/>
<path style="fill:#CCA295;" d="M410.64,122.711c2.63-6.766,6.533-10.783,10.688-13.113l-4.955-1.776c0,0-22.412-7.371-31.065,14.89
	c-8.653,22.261,16.14,27.826,16.14,27.826h25.33C426.779,150.536,401.986,144.971,410.64,122.711z"/>
<path style="fill:#E8C1B5;" d="M107.065,335.234l-33.191,60.353c-2.88,5.236-1.415,11.798,3.417,15.312l40.386,29.366
	c2.012,1.464,4.437,2.252,6.926,2.252h44.644c12.541,0,24.287,6.148,31.436,16.457l2.326,3.353
	c3.073,4.43-0.096,10.489-5.486,10.489h-81.36c-7.934,0-15.678-2.436-22.183-6.978l-42.164-29.437
	c-16.314-11.39-21.765-33.053-12.787-50.813l34.302-67.853L107.065,335.234z"/>
<path style="fill:#334452;" d="M66.122,268.577l-31.371,86.709c-0.816,2.255,0.102,4.772,2.18,5.97l48.533,27.987
	c2.166,1.25,4.924,0.683,6.424-1.318l24.641-32.854c18.252-24.337,10.589-59.223-16.179-73.656l-28.129-15.167
	C69.905,264.998,67.019,266.1,66.122,268.577z"/>
<g>
	<path style="fill:#2F3F4A;" d="M82.847,289.276c3.198-8.148-0.189-17.403-7.891-21.555l-2.734-1.474
		c-2.318-1.25-5.203-0.147-6.099,2.33l-31.371,86.708c-0.816,2.255,0.102,4.772,2.18,5.97l14.403,8.305L82.847,289.276z"/>
	<path style="fill:#2F3F4A;" d="M163.41,109.16c-3.884,0-7.31-2.809-7.966-6.769c-0.729-4.408,2.25-8.573,6.655-9.304l44.768-7.42
		c4.406-0.726,8.567,2.252,9.296,6.659c0.729,4.408-2.25,8.573-6.655,9.304l-44.768,7.42
		C164.293,109.124,163.848,109.16,163.41,109.16z"/>
	<path style="fill:#2F3F4A;" d="M99.262,152.67c-3.476,0-6.687-2.261-7.74-5.765c-1.284-4.279,1.141-8.79,5.417-10.076
		l43.457-13.064c4.277-1.282,8.783,1.142,10.069,5.421c1.284,4.279-1.141,8.79-5.417,10.076l-43.457,13.064
		C100.816,152.559,100.032,152.67,99.262,152.67z"/>
	<path style="fill:#2F3F4A;" d="M272.825,265.795c-1.751,0-3.515-0.566-4.997-1.735c-3.508-2.765-4.112-7.851-1.348-11.361
		l28.072-35.668c2.762-3.511,7.846-4.114,11.353-1.35c3.508,2.765,4.112,7.851,1.348,11.361l-28.072,35.668
		C277.587,264.738,275.218,265.795,272.825,265.795z"/>
	<path style="fill:#2F3F4A;" d="M180.092,153.852c-3.31,0-6.415-2.049-7.604-5.344c-1.517-4.202,0.657-8.839,4.857-10.357
		l42.678-15.428c4.198-1.519,8.834,0.658,10.35,4.861c1.517,4.202-0.657,8.839-4.857,10.357l-42.678,15.428
		C181.931,153.696,181.003,153.852,180.092,153.852z"/>
	<path style="fill:#2F3F4A;" d="M123.622,210.033c-2.875,0-5.658-1.538-7.12-4.246c-2.122-3.931-0.658-8.84,3.269-10.963
		l39.921-21.582c3.93-2.123,8.834-0.658,10.956,3.273s0.658,8.84-3.269,10.963l-39.921,21.582
		C126.236,209.72,124.92,210.033,123.622,210.033z"/>
	<path style="fill:#2F3F4A;" d="M163.767,263.724c-2.117,0-4.232-0.828-5.819-2.473c-3.1-3.215-3.008-8.336,0.205-11.44
		l32.651-31.527c3.213-3.102,8.33-3.011,11.431,0.205c3.1,3.215,3.008,8.336-0.205,11.44l-32.651,31.527
		C167.811,262.971,165.788,263.724,163.767,263.724z"/>
	<path style="fill:#2F3F4A;" d="M212.769,309.211c-1.597,0-3.208-0.471-4.616-1.454c-3.662-2.555-4.562-7.599-2.008-11.264
		l25.947-37.243c2.554-3.665,7.592-4.565,11.256-2.01c3.662,2.555,4.562,7.598,2.008,11.264l-25.947,37.243
		C217.836,308.002,215.322,309.211,212.769,309.211z"/>
	<path style="fill:#2F3F4A;" d="M236.529,232.197c-2.124,0-4.244-0.832-5.833-2.487c-3.093-3.222-2.989-8.345,0.232-11.439
		l32.725-31.449c3.221-3.095,8.339-2.992,11.43,0.232c3.093,3.222,2.989,8.345-0.231,11.439l-32.726,31.449
		C240.561,231.449,238.543,232.197,236.529,232.197z"/>
	<path style="fill:#2F3F4A;" d="M206.648,193.142c-2.664,0-5.274-1.318-6.816-3.73c-2.406-3.763-1.309-8.767,2.451-11.175
		l38.216-24.479c3.761-2.407,8.76-1.311,11.167,2.452c2.406,3.763,1.309,8.767-2.451,11.175l-38.216,24.479
		C209.649,192.728,208.141,193.142,206.648,193.142z"/>
</g>
<g>
</g>
<g>
</g>
<g>
</g>
<g>
</g>
<g>
</g>
<g>
</g>
<g>
</g>
<g>
</g>
<g>
</g>
<g>
</g>
<g>
</g>
<g>
</g>
<g>
</g>
<g>
</g>
<g>
</g>
</svg>
