<?xml version="1.0" encoding="iso-8859-1"?>
<!-- Generator: Adobe Illustrator 19.0.0, SVG Export Plug-In . SVG Version: 6.00 Build 0)  -->
<svg version="1.1" id="Capa_1" xmlns="http://www.w3.org/2000/svg" xmlns:xlink="http://www.w3.org/1999/xlink" x="0px" y="0px"
	 viewBox="0 0 512 512" style="enable-background:new 0 0 512 512;" xml:space="preserve">
<path style="fill:#596675;" d="M122.732,365.831C99.664,390.25,34.29,419.797,9.871,396.728
	c-24.419-23.068,1.363-90.016,24.432-114.435c23.068-24.419,61.565-25.514,85.984-2.446
	C144.706,302.915,145.801,341.412,122.732,365.831z"/>
<path style="opacity:0.1;enable-background:new    ;" d="M120.287,279.847c-24.419-23.069-62.916-21.974-85.984,2.446
	c-1.876,1.986-3.77,4.257-5.653,6.759c4.197,42.635,19.503,79.084,45.068,107.5c19.839-7.806,38.676-19.777,49.015-30.721
	C145.801,341.412,144.706,302.915,120.287,279.847z"/>
<path style="fill:#596675;" d="M389.268,365.831c23.068,24.419,88.442,53.966,112.862,30.897
	c24.419-23.068-1.363-90.016-24.432-114.435c-23.068-24.419-61.565-25.514-85.984-2.446
	C367.294,302.915,366.199,341.412,389.268,365.831z"/>
<path style="opacity:0.1;enable-background:new    ;" d="M391.713,279.847c24.419-23.069,62.916-21.974,85.984,2.446
	c1.876,1.986,3.77,4.257,5.653,6.759c-4.197,42.635-19.503,79.084-45.068,107.5c-19.839-7.806-38.676-19.777-49.015-30.721
	C366.199,341.412,367.294,302.915,391.713,279.847z"/>
<path style="fill:#596675;" d="M464.547,264.432c0-126.077-93.37-228.283-208.547-228.283S47.453,138.355,47.453,264.432
	S140.823,444.455,256,444.455S464.547,390.509,464.547,264.432z"/>
<path style="opacity:0.1;enable-background:new    ;" d="M464.547,264.432c0-126.077-93.37-228.283-208.547-228.283
	S47.453,138.355,47.453,264.432S140.823,444.455,256,444.455S464.547,390.509,464.547,264.432z"/>
<path style="fill:#8090A0;" d="M256,167.362c-75.42,0-136.56,66.4-136.56,148.308c0,48.074,21.068,90.798,53.717,117.898
	c25.395,7.352,53.403,10.887,82.843,10.887s57.448-3.534,82.843-10.887c32.649-27.1,53.717-69.823,53.717-117.898
	C392.559,233.762,331.42,167.362,256,167.362z"/>
<g style="opacity:0.1;">
	<path d="M256,337.137c-1.919,0-3.839-0.732-5.303-2.197l-19.16-19.159c-2.929-2.929-2.929-7.678,0-10.607s7.678-2.929,10.606,0
		L256,319.031l13.856-13.856c2.929-2.929,7.678-2.929,10.607,0s2.929,7.678,0,10.607l-19.16,19.159
		C259.839,336.405,257.919,337.137,256,337.137z"/>
	<path d="M195.808,374.092c-1.989,0-3.897-0.79-5.303-2.197l-19.16-19.16c-2.929-2.929-2.929-7.678,0-10.607s7.678-2.929,10.606,0
		l13.856,13.857l13.856-13.857c2.929-2.929,7.678-2.929,10.606,0c2.929,2.929,2.929,7.678,0,10.607l-19.159,19.16
		C199.705,373.302,197.797,374.092,195.808,374.092z"/>
	<path d="M316.192,374.092L316.192,374.092c-1.989,0-3.897-0.79-5.303-2.197l-19.159-19.16c-2.929-2.929-2.929-7.678,0-10.607
		s7.678-2.93,10.606,0l13.856,13.857l13.856-13.857c2.929-2.929,7.678-2.929,10.607,0s2.929,7.678,0,10.607l-19.16,19.16
		C320.089,373.302,318.182,374.092,316.192,374.092z"/>
</g>
<path style="opacity:0.1;enable-background:new    ;" d="M226.186,38.481C125.134,54.318,47.453,149.437,47.453,264.432
	c0,126.077,93.37,180.023,208.547,180.023c8.815,0,17.5-0.32,26.027-0.96C63.811,423.364,151.819,109.139,226.186,38.481z"/>
<path style="fill:#596675;" d="M470.847,28.915L470.847,28.915c-36.123,20.94-77.136,31.968-118.89,31.968H160.042
	c-41.754,0-82.767-11.028-118.89-31.968l0,0c-12.86-7.455-28.464,4.045-25.084,18.521c6.708,28.727,22.591,55.692,52.42,68.758
	c-9.684,16.537-15.241,35.784-15.241,56.332c0,61.659,49.984,111.643,111.643,111.643c37.614,0,70.883-18.602,91.111-47.108
	c20.228,28.506,53.496,47.108,91.111,47.108c61.659,0,111.643-49.984,111.643-111.643c0-20.548-5.557-39.795-15.241-56.332
	c29.829-13.067,45.712-40.031,52.42-68.758C499.312,32.96,483.708,21.46,470.847,28.915z"/>
<g>
	<circle style="fill:#FFFFFF;" cx="164.89" cy="172.53" r="70.58"/>
	<circle style="fill:#FFFFFF;" cx="347.11" cy="172.53" r="70.58"/>
</g>
<path style="opacity:0.1;enable-background:new    ;" d="M271.813,197.263l23.809,24.587c4.302,4.442,4.867,11.305,1.35,16.391
	l-35.45,51.262c-2.67,3.86-8.375,3.86-11.045,0l-35.45-51.262c-3.517-5.086-2.952-11.948,1.35-16.391l23.809-24.587L271.813,197.263
	L271.813,197.263z"/>
<path style="fill:#FBDD56;" d="M240.187,197.263l-16.16,14.566c-5.146,4.638-6.173,12.322-2.426,18.15l27.316,42.481
	c3.315,5.156,10.852,5.156,14.167,0l27.316-42.481c3.747-5.827,2.72-13.511-2.426-18.15l-16.16-14.566
	C262.827,189.163,249.173,189.163,240.187,197.263z"/>
<path style="opacity:0.1;enable-background:new    ;" d="M254.686,191.247c-5.215,0.29-10.354,2.28-14.499,6.016l-16.16,14.566
	c-5.146,4.638-6.173,12.322-2.426,18.149l27.316,42.481c2.044,3.178,5.69,4.39,8.964,3.65
	C248.782,260.12,250.39,207.778,254.686,191.247z"/>
<g>
	<path style="fill:#FBDD56;" d="M195.716,485.424L195.716,485.424c-17.025,0-30.827-13.802-30.827-30.827v-20.285
		c0-17.025,13.802-30.827,30.827-30.827l0,0c17.025,0,30.827,13.802,30.827,30.827v20.285
		C226.544,471.622,212.742,485.424,195.716,485.424z"/>
	<path style="fill:#FBDD56;" d="M316.283,485.424L316.283,485.424c17.025,0,30.827-13.802,30.827-30.827v-20.285
		c0-17.025-13.802-30.827-30.827-30.827l0,0c-17.025,0-30.827,13.802-30.827,30.827v20.285
		C285.456,471.622,299.258,485.424,316.283,485.424z"/>
</g>
<g>
	<path style="fill:#414B58;" d="M165.795,185.314c-4.142,0-7.5-3.358-7.5-7.5v-15.225c0-4.142,3.358-7.5,7.5-7.5s7.5,3.358,7.5,7.5
		v15.225C173.295,181.956,169.937,185.314,165.795,185.314z"/>
	<path style="fill:#414B58;" d="M346.205,185.314c-4.142,0-7.5-3.358-7.5-7.5v-15.225c0-4.142,3.358-7.5,7.5-7.5s7.5,3.358,7.5,7.5
		v15.225C353.705,181.956,350.347,185.314,346.205,185.314z"/>
</g>
<g>
</g>
<g>
</g>
<g>
</g>
<g>
</g>
<g>
</g>
<g>
</g>
<g>
</g>
<g>
</g>
<g>
</g>
<g>
</g>
<g>
</g>
<g>
</g>
<g>
</g>
<g>
</g>
<g>
</g>
</svg>
