<svg height="512pt" viewBox="-41 0 512 512" width="512pt" xmlns="http://www.w3.org/2000/svg" xmlns:xlink="http://www.w3.org/1999/xlink"><linearGradient id="lg1"><stop offset="0" stop-color="#ffe548"/><stop offset=".5034" stop-color="#ffe346"/><stop offset=".6872" stop-color="#ffdd3f"/><stop offset=".8186" stop-color="#ffd233"/><stop offset=".9243" stop-color="#ffc223"/><stop offset="1" stop-color="#ffb211"/></linearGradient><radialGradient id="radial0" cx="47.4821153652" cy="158.560946563" gradientUnits="userSpaceOnUse" r="135.7268410652" xlink:href="#lg1"/><radialGradient id="radial1" cx="293.757132559" cy="158.560946563" gradientUnits="userSpaceOnUse" r="135.7268410652" xlink:href="#lg1"/><radialGradient id="radial2" cx="144.5991202324" cy="55.1892064592" gradientUnits="userSpaceOnUse" r="304.6814924864" xlink:href="#lg1"/><linearGradient id="lg2"><stop offset="0" stop-color="#ff9517" stop-opacity="0"/><stop offset=".3074" stop-color="#ee8421" stop-opacity=".305882"/><stop offset=".6784" stop-color="#e07728" stop-opacity=".678431"/><stop offset="1" stop-color="#db722b"/></linearGradient><linearGradient id="linear0" gradientUnits="userSpaceOnUse" x1="245.8789880648" x2="52.2776499748" xlink:href="#lg2" y1="128.7589196398" y2="-229.11005923"/><linearGradient id="linear1" gradientUnits="userSpaceOnUse" x1="276.3589635146" x2="178.0915644276" xlink:href="#lg2" y1="324.0648168936" y2="53.2186079654"/><linearGradient id="linear2" gradientUnits="userSpaceOnUse" x1="194.5881111238" x2="272.565343061" y1="210.8646804098" y2="255.7898887332"><stop offset="0" stop-color="#ffb211"/><stop offset="1" stop-color="#ff4b3e"/></linearGradient><linearGradient id="lg3"><stop offset="0" stop-color="#4b4e6d"/><stop offset="1" stop-color="#131830"/></linearGradient><linearGradient id="linear3" gradientUnits="userSpaceOnUse" x1="143.2675180916" x2="157.589168167" xlink:href="#lg3" y1="147.487184942" y2="188.2872777674"/><linearGradient id="linear4" gradientUnits="userSpaceOnUse" x1="273.17221391" x2="287.4938639854" xlink:href="#lg3" y1="147.487184942" y2="188.2872777674"/><linearGradient id="lg4"><stop offset="0" stop-color="#fffcf8"/><stop offset=".3892" stop-color="#fffbf5"/><stop offset=".6328" stop-color="#fef9ed"/><stop offset=".8357" stop-color="#fdf5de"/><stop offset="1" stop-color="#fcf0cc"/></linearGradient><radialGradient id="radial3" cx="145.298151121" cy="194.5032616148" gradientUnits="userSpaceOnUse" r="294.6125563952" xlink:href="#lg4"/><radialGradient id="radial4" cx="240.0607" cy="3.4955" gradientTransform="matrix(.900919 .44283 -.398456 .810667 -15.103096 -105.635037)" gradientUnits="userSpaceOnUse" r="85.3737" xlink:href="#lg4"/><path d="m164.398438 272.851562c0-48.742187-32.570313-88.257812-72.746094-88.257812-40.175782 0-72.742188 39.515625-72.742188 88.257812 0 48.746094 32.566406 88.257813 72.742188 88.257813 40.175781 0 72.746094-39.511719 72.746094-88.257813zm0 0" fill="url(#radial0)"/><path d="m410.675781 272.851562c0-48.742187-32.570312-88.257812-72.746093-88.257812-40.175782 0-72.746094 39.515625-72.746094 88.257812 0 48.746094 32.570312 88.257813 72.746094 88.257813 40.175781 0 72.746093-39.511719 72.746093-88.257813zm0 0" fill="url(#radial1)"/><path d="m378.449219 224.125c0 90.386719-73.273438 153.601562-163.65625 153.601562-90.386719 0-163.65625-63.214843-163.65625-153.601562 0-90.382812 73.269531-202.285156 163.65625-202.285156 90.382812 0 163.65625 111.902344 163.65625 202.285156zm0 0" fill="url(#radial2)"/><path d="m214.792969 21.839844c-40.441407 0-77.445313 22.40625-106.003907 55.257812l238.980469 238.980469c19.304688-24.96875 30.679688-56.351563 30.679688-91.953125 0-90.382812-73.273438-202.285156-163.65625-202.285156zm0 0" fill="url(#linear0)"/><path d="m354.574219 306.511719-82.933594-83.175781-2.707031-2.40625c-6.5-5.769532-14.105469-10.113282-22.296875-13.019532-2.6875-.953125-5.277344-2.28125-7.75-3.886718-.535157-.535157-1.109375-1.015626-1.722657-1.414063-.101562-.148437-13.40625-13.523437-13.40625-13.523437-4.398437-6.160157-13.535156-6.160157-17.933593 0-5.902344 8.269531-13.851563 15.621093-22.875 18.824218-8.195313 2.90625-15.800781 7.25-22.300781 13.019532l-2.707032 2.40625c-2.597656 2.308593-1.242187 6.476562 1.984375 7.011718l130.894531 130.890625c26.273438-12.316406 48.339844-31.074219 63.753907-54.726562zm0 0" fill="url(#linear1)"/><path d="m267.359375 230.40625h1.59375c3.722656 0 5.46875-4.597656 2.6875-7.070312l-2.707031-2.402344c-6.5-5.773438-14.105469-10.117188-22.296875-13.023438-9.023438-3.199218-16.976563-10.554687-22.878907-18.824218-4.398437-6.160157-13.535156-6.160157-17.933593 0-5.902344 8.269531-13.851563 15.625-22.875 18.824218-8.195313 2.90625-15.800781 7.25-22.300781 13.023438l-2.707032 2.402344c-2.78125 2.472656-1.03125 7.070312 2.6875 7.070312h1.59375c15.101563 0 29.308594 7.15625 38.296875 19.292969 7.097657 9.589843 21.445313 9.589843 28.542969 0 8.988281-12.136719 23.195312-19.292969 38.296875-19.292969zm0 0" fill="url(#linear2)"/><path d="m168.09375 166.210938c0 10.082031-8.171875 18.253906-18.253906 18.253906-10.082032 0-18.253906-8.171875-18.253906-18.253906 0-10.082032 8.171874-18.257813 18.253906-18.257813 10.082031 0 18.253906 8.175781 18.253906 18.257813zm0 0" fill="url(#linear3)"/><path d="m298 166.210938c0 10.082031-8.171875 18.253906-18.253906 18.253906-10.082032 0-18.257813-8.171875-18.257813-18.253906 0-10.082032 8.175781-18.257813 18.257813-18.257813 10.082031 0 18.253906 8.175781 18.253906 18.257813zm0 0" fill="url(#linear4)"/><path d="m429.578125 297.210938c0 118.625-96.164063 214.789062-214.789063 214.789062s-214.789062-96.164062-214.789062-214.789062c0-7.695313.402344-15.65625 1.195312-23.792969l.015626-.152344c.65625-6.800781 8.191406-10.582031 14.035156-7.039063l18.070312 10.953126c4.609375 2.792968 10.390625 2.792968 15.003906 0l28.476563-17.261719c4.609375-2.796875 10.390625-2.796875 15.003906-.003907l28.488281 17.265626c4.609376 2.796874 10.390626 2.796874 15 .003906l28.5-17.269532c4.609376-2.792968 10.390626-2.792968 15 0l28.488282 17.265626c4.609375 2.796874 10.390625 2.796874 15.003906 0l28.476562-17.261719c4.609376-2.796875 10.390626-2.796875 15.003907 0l28.488281 17.261719c4.609375 2.796874 10.390625 2.796874 15 0l28.492188-17.265626c4.609374-2.792968 10.390624-2.792968 15 0l28.5 17.269532c4.609374 2.792968 10.386718 2.792968 15 0l18.089843-10.960938c5.84375-3.542968 13.378907.238282 14.039063 7.039063l.011718.144531c.792969 8.148438 1.195313 16.097656 1.195313 23.804688zm0 0" fill="url(#radial3)"/><path d="m338.488281 55.933594c3.28125 3.066406 2.746094 8.417968-1.09375 10.746094l-8.324219 5.054687c-5.582031 3.363281-12.570312 3.363281-18.152343 0l-34.464844-20.894531c-5.5625-3.382813-12.566406-3.382813-18.148437 0l-34.445313 20.878906c-5.566406 3.378906-12.570313 3.378906-18.152344 0l-34.464843-20.878906c-5.5625-3.382813-12.566407-3.382813-18.132813 0l-34.476563 20.890625c-5.582031 3.382812-12.570312 3.367187-18.148437 0l-8.292969-5.019531c-3.839844-2.332032-4.378906-7.683594-1.09375-10.75 36.589844-34.183594 78.785156-55.960938 123.707032-55.960938 44.910156 0 87.105468 21.761719 123.683593 55.933594zm0 0" fill="url(#radial4)"/></svg>